<svg width="53" height="52" viewBox="0 0 53 52" fill="none" xmlns="http://www.w3.org/2000/svg">
    <circle cx="26.5" cy="26" r="26" fill="url(#paint0_linear_0_1)" fill-opacity="0.2"/>
    <path d="M19.1966 34.3031C16.1647 36.3654 16.2771 36.8208 16.2771 37.7368C16.2771 38.776 17.1074 39.8795 17.9324 40.6776H18.6555C19.5048 40.6946 20.3491 40.544 21.1402 40.2344C21.9312 39.9247 22.6533 39.4621 23.2653 38.873C23.8773 38.2838 24.3671 37.5798 24.7067 36.8012C25.0463 36.0225 25.229 35.1846 25.2443 34.3353L25.3514 28.7964C25.3564 28.568 25.3162 28.3409 25.2333 28.1281C25.1503 27.9153 25.0261 27.7209 24.8678 27.5562C24.7096 27.3915 24.5204 27.2596 24.311 27.1682C24.1017 27.0767 23.8764 27.0275 23.648 27.0233L21.8642 26.9858C22.2308 28.3316 22.1712 29.758 21.6934 31.0685C21.2156 32.3789 20.3433 33.509 19.1966 34.3031Z" fill="url(#paint1_linear_0_1)"/>
    <path d="M17.8413 40.6774H17.9271C17.1021 39.8632 16.2718 38.7758 16.2718 37.7366C16.2718 36.8206 16.1593 36.3652 19.1912 34.3029C20.3368 33.5113 21.2093 32.3845 21.6888 31.0773C22.1684 29.77 22.2315 28.3463 21.8696 27.0017L18.1199 26.9321C17.2686 26.9114 16.4215 27.0592 15.6275 27.3669C14.8334 27.6745 14.1079 28.136 13.4927 28.7248C12.8775 29.3137 12.3847 30.0182 12.0425 30.7981C11.7004 31.5779 11.5157 32.4176 11.499 33.2691V34.0886C11.4827 34.9378 11.6338 35.7818 11.9437 36.5725C12.2536 37.3632 12.7163 38.085 13.3052 38.6969C13.8942 39.3088 14.598 39.7986 15.3763 40.1384C16.1546 40.4782 16.9922 40.6614 17.8413 40.6774Z" fill="url(#paint2_linear_0_1)"/>
    <path d="M18.1949 18.6988C16.1379 15.6669 15.6772 15.7793 14.7666 15.7793C13.7274 15.7793 12.6239 16.6096 11.8204 17.4346V18.1577C11.8033 19.0066 11.9538 19.8505 12.2631 20.6411C12.5725 21.4318 13.0346 22.1537 13.6231 22.7657C14.2117 23.3776 14.9151 23.8675 15.6931 24.2074C16.4711 24.5473 17.3085 24.7305 18.1574 24.7465L23.7016 24.8536C24.1624 24.8622 24.6079 24.6877 24.9402 24.3684C25.2726 24.0491 25.4648 23.611 25.4747 23.1502L25.5068 21.3664C24.1618 21.7318 22.7365 21.6715 21.4272 21.1938C20.1178 20.7161 18.9886 19.8445 18.1949 18.6988Z" fill="url(#paint3_linear_0_1)"/>
    <path d="M11.5 17.3435V17.4293C12.3142 16.6043 13.407 15.774 14.4462 15.774C15.3568 15.774 15.8175 15.6615 17.8745 18.6934C18.6661 19.839 19.7929 20.7114 21.1002 21.191C22.4074 21.6706 23.8311 21.7337 25.1757 21.3718L25.2507 17.6221C25.2706 16.7705 25.1222 15.9234 24.8139 15.1293C24.5057 14.3352 24.0437 13.6097 23.4544 12.9946C22.8652 12.3795 22.1602 11.8867 21.3801 11.5446C20.6 11.2026 19.76 11.0179 18.9083 11.0012H18.0888C17.2396 10.9849 16.3956 11.136 15.6049 11.4459C14.8142 11.7558 14.0924 12.2185 13.4805 12.8074C12.8686 13.3964 12.3788 14.1002 12.039 14.8785C11.6992 15.6568 11.516 16.4944 11.5 17.3435Z" fill="url(#paint4_linear_0_1)"/>
    <path d="M33.8045 17.697C36.831 15.64 36.7185 15.1793 36.7185 14.2687C36.7185 13.2295 35.8882 12.126 35.0687 11.3225H34.3401C32.6262 11.2895 30.9693 11.9385 29.7338 13.1268C28.4982 14.3152 27.7852 15.9455 27.7514 17.6595L27.6443 23.2037C27.6371 23.665 27.8128 24.1105 28.1329 24.4427C28.4531 24.7749 28.8918 24.9669 29.353 24.9768L31.1368 25.0089C30.7714 23.6639 30.8317 22.2386 31.3094 20.9293C31.7871 19.6199 32.6588 18.4907 33.8045 17.697Z" fill="url(#paint5_linear_0_1)"/>
    <path d="M35.1597 11.3223H35.0686C35.8882 12.1365 36.7185 13.2293 36.7185 14.2685C36.7185 15.1791 36.831 15.6398 33.8044 17.6968C32.6589 18.4884 31.7864 19.6151 31.3069 20.9224C30.8273 22.2297 30.7642 23.6534 31.1261 24.998L34.8758 25.073C35.7276 25.0936 36.575 24.9456 37.3694 24.6376C38.1638 24.3297 38.8895 23.8677 39.5048 23.2783C40.1201 22.6889 40.6128 21.9837 40.9547 21.2033C41.2965 20.4228 41.4807 19.5825 41.4967 18.7306V17.911C41.5297 16.1971 40.8807 14.5402 39.6923 13.3046C38.504 12.0691 36.8736 11.356 35.1597 11.3223Z" fill="url(#paint6_linear_0_1)"/>
    <path d="M34.8007 33.3066C36.863 36.3332 37.3183 36.2207 38.2343 36.2207C39.2735 36.2207 40.377 35.3904 41.1752 34.5708V33.8423C41.1915 32.9932 41.0404 32.1492 40.7305 31.3585C40.4205 30.5678 39.9579 29.8459 39.3689 29.234C38.7799 28.6222 38.0762 28.1324 37.2979 27.7925C36.5196 27.4527 35.6819 27.2696 34.8328 27.2535L29.294 27.1464C29.0652 27.1414 28.8376 27.1818 28.6244 27.2651C28.4113 27.3484 28.2167 27.4731 28.0519 27.6319C27.8871 27.7907 27.7553 27.9806 27.6642 28.1905C27.5731 28.4005 27.5244 28.6264 27.5209 28.8552L27.4834 30.639C28.8292 30.2724 30.2556 30.332 31.566 30.8098C32.8765 31.2875 34.0066 32.1599 34.8007 33.3066Z" fill="url(#paint7_linear_0_1)"/>
    <path d="M41.1752 34.6619V34.5708C40.361 35.3904 39.2736 36.2207 38.2344 36.2207C37.3184 36.2207 36.863 36.3332 34.8007 33.3066C34.0091 32.1611 32.8823 31.2886 31.5751 30.8091C30.2678 30.3295 28.8441 30.2663 27.4995 30.6283L27.4299 34.378C27.4093 35.2293 27.557 36.0763 27.8647 36.8704C28.1723 37.6645 28.6338 38.3899 29.2226 39.0052C29.8115 39.6204 30.516 40.1132 31.2959 40.4553C32.0757 40.7975 32.9154 40.9822 33.7669 40.9989H34.5864C36.3004 41.0319 37.9573 40.3829 39.1928 39.1945C40.4284 38.0062 41.1414 36.3758 41.1752 34.6619Z" fill="url(#paint8_linear_0_1)"/>
    <defs>
        <linearGradient id="paint0_linear_0_1" x1="26.5" y1="0" x2="26.5" y2="52" gradientUnits="userSpaceOnUse">
            <stop stop-color="#8E50DD"/>
            <stop offset="1" stop-color="#8E50DD" stop-opacity="0"/>
        </linearGradient>
        <linearGradient id="paint1_linear_0_1" x1="20.8142" y1="26.9858" x2="20.8142" y2="40.6789" gradientUnits="userSpaceOnUse">
            <stop stop-color="#692ADA"/>
            <stop offset="1" stop-color="#8E50DD"/>
        </linearGradient>
        <linearGradient id="paint2_linear_0_1" x1="16.7996" y1="26.9302" x2="16.7996" y2="40.6774" gradientUnits="userSpaceOnUse">
            <stop stop-color="#6439B6"/>
            <stop offset="1" stop-color="#40128B"/>
        </linearGradient>
        <linearGradient id="paint3_linear_0_1" x1="18.6629" y1="15.7788" x2="18.6629" y2="24.8539" gradientUnits="userSpaceOnUse">
            <stop stop-color="#692ADA"/>
            <stop offset="1" stop-color="#8E50DD"/>
        </linearGradient>
        <linearGradient id="paint4_linear_0_1" x1="18.3762" y1="11" x2="18.3762" y2="21.6036" gradientUnits="userSpaceOnUse">
            <stop stop-color="#6439B6"/>
            <stop offset="1" stop-color="#40128B"/>
        </linearGradient>
        <linearGradient id="paint5_linear_0_1" x1="32.1816" y1="11.3213" x2="32.1816" y2="25.0089" gradientUnits="userSpaceOnUse">
            <stop stop-color="#692ADA"/>
            <stop offset="1" stop-color="#8E50DD"/>
        </linearGradient>
        <linearGradient id="paint6_linear_0_1" x1="36.1961" y1="11.3223" x2="36.1961" y2="25.0748" gradientUnits="userSpaceOnUse">
            <stop stop-color="#6439B6"/>
            <stop offset="1" stop-color="#40128B"/>
        </linearGradient>
        <linearGradient id="paint7_linear_0_1" x1="34.3299" y1="27.146" x2="34.3299" y2="36.2212" gradientUnits="userSpaceOnUse">
            <stop stop-color="#692ADA"/>
            <stop offset="1" stop-color="#8E50DD"/>
        </linearGradient>
        <linearGradient id="paint8_linear_0_1" x1="34.3016" y1="30.3965" x2="34.3016" y2="41.0001" gradientUnits="userSpaceOnUse">
            <stop stop-color="#6439B6"/>
            <stop offset="1" stop-color="#40128B"/>
        </linearGradient>
    </defs>
</svg>
