<svg width="23" height="22" viewBox="0 0 23 22" fill="none" xmlns="http://www.w3.org/2000/svg">
    <path d="M21.8572 16.3846V19.4615C21.8572 19.8696 21.6951 20.2609 21.4066 20.5494C21.1181 20.8379 20.7267 21 20.3187 21H17.2418M17.2418 1H20.3187C20.7267 1 21.1181 1.16209 21.4066 1.4506C21.6951 1.73912 21.8572 2.13044 21.8572 2.53846V5.61538M1.85718 5.61538V2.53846C1.85718 2.13044 2.01927 1.73912 2.30778 1.4506C2.5963 1.16209 2.98761 1 3.39564 1H6.47256M6.47256 21H3.39564C2.98761 21 2.5963 20.8379 2.30778 20.5494C2.01927 20.2609 1.85718 19.8696 1.85718 19.4615V16.3846M7.24179 5.61538V8.69231M16.4726 5.61538V8.69231M11.8572 7.15385V12.5385H9.54949M8.01102 15.6154C9.0489 16.6012 10.4257 17.1509 11.8572 17.1509C13.2886 17.1509 14.6655 16.6012 15.7033 15.6154" stroke="#594C78" stroke-width="2" stroke-linecap="round" stroke-linejoin="round"/>
</svg>
