<svg width="26" height="26" viewBox="0 0 26 26" fill="none" xmlns="http://www.w3.org/2000/svg">
    <path d="M2.39751 8.90148C2.70637 8.12646 3.09589 7.38605 3.55961 6.69249C5.02035 4.51229 7.17105 2.88591 9.66669 2.07423C12.1623 1.26255 14.8583 1.31262 17.3221 2.21641C19.7858 3.1202 21.8747 4.82533 23.2534 7.05826C24.6322 9.2912 25.221 11.9225 24.9255 14.5301C24.6299 17.1378 23.4671 19.5705 21.6235 21.4382C19.7799 23.3059 17.3624 24.5003 14.7589 24.8297C12.1553 25.1591 9.51655 24.6045 7.2659 23.2548C5.01525 21.9051 3.28312 19.8386 2.34741 17.3868" stroke="#40128B" stroke-width="2" stroke-linecap="round" stroke-linejoin="round"/>
    <path d="M1 4.76904V9.26216H5.77364" stroke="#40128B" stroke-width="2" stroke-linecap="round" stroke-linejoin="round"/>
    <path d="M16.4379 16.4702L13.0618 13.7653V7.25854" stroke="#40128B" stroke-width="2" stroke-linecap="round" stroke-linejoin="round"/>
</svg>
