<svg width="53" height="52" viewBox="0 0 53 52" fill="none" xmlns="http://www.w3.org/2000/svg">
    <circle cx="26.5" cy="26" r="26" fill="url(#paint0_linear_0_1)" fill-opacity="0.2"/>
    <g clip-path="url(#clip0_0_1)">
        <path d="M36.9875 32.6336V16.5088L15.0088 32.6336H36.9875Z" fill="url(#paint1_linear_0_1)"/>
        <path d="M15.0088 32.6336L36.9875 16.5088H15.0088V32.6336Z" fill="url(#paint2_linear_0_1)"/>
        <path d="M36.9912 15H15.0088C14.6086 15 14.2248 15.159 13.9419 15.4419C13.659 15.7248 13.5 16.1086 13.5 16.5088V32.6335C13.5 33.0337 13.659 33.4174 13.9419 33.7004C14.2248 33.9833 14.6086 34.1423 15.0088 34.1423H24.4611V35.2738H20.8665C20.6504 35.2738 20.4432 35.3597 20.2904 35.5125C20.1376 35.6653 20.0518 35.8725 20.0518 36.0886C20.0518 36.3046 20.1376 36.5119 20.2904 36.6647C20.4432 36.8175 20.6504 36.9033 20.8665 36.9033H31.1335C31.3496 36.9033 31.5568 36.8175 31.7096 36.6647C31.8624 36.5119 31.9482 36.3046 31.9482 36.0886C31.9482 35.8725 31.8624 35.6653 31.7096 35.5125C31.5568 35.3597 31.3496 35.2738 31.1335 35.2738H27.5389V34.1423H36.9912C37.3914 34.1423 37.7752 33.9833 38.0581 33.7004C38.341 33.4174 38.5 33.0337 38.5 32.6335V16.5088C38.5 16.1086 38.341 15.7248 38.0581 15.4419C37.7752 15.159 37.3914 15 36.9912 15ZM36.9912 32.6335H15.0088V16.5088H36.9912V32.6335Z" fill="#EB4001"/>
        <path d="M23.439 22.8113V26.9265C23.4418 27.0875 23.4873 27.2449 23.5709 27.3825C23.6545 27.5202 23.7731 27.6332 23.9147 27.7099C24.0563 27.7866 24.2157 27.8244 24.3767 27.8193C24.5376 27.8142 24.6944 27.7664 24.8308 27.6808L28.2104 25.561C28.3411 25.4781 28.4483 25.3631 28.5219 25.227C28.5954 25.0908 28.6329 24.9381 28.6306 24.7834C28.6283 24.6286 28.5864 24.4771 28.5089 24.3431C28.4314 24.2092 28.3208 24.0974 28.1878 24.0183L24.8157 22.0343C24.6782 21.9504 24.5207 21.9047 24.3596 21.902C24.1985 21.8992 24.0396 21.9396 23.8993 22.0187C23.759 22.0979 23.6423 22.2132 23.5614 22.3525C23.4805 22.4918 23.4382 22.6502 23.439 22.8113Z" fill="white"/>
    </g>
    <defs>
        <linearGradient id="paint0_linear_0_1" x1="26.5" y1="0" x2="26.5" y2="52" gradientUnits="userSpaceOnUse">
            <stop stop-color="#F4581F"/>
            <stop offset="1" stop-color="#F4581F" stop-opacity="0"/>
        </linearGradient>
        <linearGradient id="paint1_linear_0_1" x1="41.9928" y1="19.8658" x2="18.1809" y2="38.8722" gradientUnits="userSpaceOnUse">
            <stop stop-color="#FD9670"/>
            <stop offset="0.33" stop-color="#FD936C"/>
            <stop offset="0.67" stop-color="#FD8B60"/>
            <stop offset="0.99" stop-color="#FD7E4D"/>
        </linearGradient>
        <linearGradient id="paint2_linear_0_1" x1="33.4155" y1="12.0203" x2="4.57955" y2="31.6831" gradientUnits="userSpaceOnUse">
            <stop stop-color="#FE7643"/>
            <stop offset="0.24" stop-color="#FD733F"/>
            <stop offset="0.49" stop-color="#F96933"/>
            <stop offset="0.74" stop-color="#F4581F"/>
            <stop offset="0.98" stop-color="#EC4203"/>
            <stop offset="0.99" stop-color="#EB4001"/>
        </linearGradient>
        <clipPath id="clip0_0_1">
            <rect width="25" height="21.9184" fill="white" transform="translate(13.5 15)"/>
        </clipPath>
    </defs>
</svg>
