<svg width="24" height="24" viewBox="0 0 24 24" fill="none" xmlns="http://www.w3.org/2000/svg">
    <path d="M12 22.8533C12.42 22.8436 12.823 22.6857 13.1378 22.4075C13.4525 22.1294 13.6588 21.7488 13.72 21.3333H10.2134C10.2764 21.7601 10.4923 22.1496 10.8209 22.4292C11.1496 22.7088 11.5686 22.8595 12 22.8533Z" fill="white"/>
    <path d="M21.9001 18.7533L21.6734 18.5534C21.0304 17.9804 20.4676 17.3234 20.0001 16.6C19.4896 15.6017 19.1836 14.5115 19.1001 13.3934V10.1C19.0974 9.69998 19.0617 9.30085 18.9934 8.90668C17.8642 8.67457 16.8498 8.05936 16.1221 7.1652C15.3944 6.27104 14.998 5.15288 15.0001 4.00002V3.58002C14.3041 3.23748 13.5562 3.01222 12.7868 2.91335V2.07335C12.7868 1.83731 12.693 1.61093 12.5261 1.44402C12.3592 1.27712 12.1328 1.18335 11.8968 1.18335C11.6607 1.18335 11.4344 1.27712 11.2675 1.44402C11.1005 1.61093 11.0068 1.83731 11.0068 2.07335V2.94668C9.28393 3.18972 7.70716 4.04785 6.56759 5.36264C5.42803 6.67743 4.8026 8.36011 4.80678 10.1V13.3934C4.72328 14.5115 4.4173 15.6017 3.90678 16.6C3.44737 17.3216 2.89358 17.9785 2.26011 18.5534L2.03345 18.7533V20.6334H21.9001V18.7533Z" fill="white"/>
    <path d="M20.0001 7.33341C21.841 7.33341 23.3334 5.84103 23.3334 4.00008C23.3334 2.15913 21.841 0.666748 20.0001 0.666748C18.1591 0.666748 16.6667 2.15913 16.6667 4.00008C16.6667 5.84103 18.1591 7.33341 20.0001 7.33341Z" fill="#FE4646"/>
</svg>
