<svg width="52" height="52" viewBox="0 0 52 52" fill="none" xmlns="http://www.w3.org/2000/svg">
    <circle cx="26" cy="26" r="26" fill="url(#paint0_linear_0_1)" fill-opacity="0.2"/>
    <g clip-path="url(#clip0_0_1)">
        <path d="M32.2061 12H19.2979C18.5559 12 17.8442 12.2948 17.3195 12.8195C16.7948 13.3442 16.5 14.0558 16.5 14.7979V39.2021C16.4989 39.5703 16.5704 39.9351 16.7105 40.2755C16.8505 40.616 17.0564 40.9255 17.3164 41.1862C17.5763 41.447 17.8851 41.6538 18.2251 41.795C18.5652 41.9362 18.9297 42.0088 19.2979 42.0088H32.2061C32.5735 42.0088 32.9374 41.9365 33.2768 41.7958C33.6163 41.6552 33.9247 41.4492 34.1845 41.1893C34.4443 40.9295 34.6504 40.6211 34.791 40.2816C34.9316 39.9422 35.004 39.5784 35.004 39.2109V14.7979C35.004 14.4305 34.9316 14.0666 34.791 13.7272C34.6504 13.3877 34.4443 13.0793 34.1845 12.8195C33.9247 12.5597 33.6163 12.3536 33.2768 12.213C32.9374 12.0724 32.5735 12 32.2061 12ZM25.7674 40.323C25.3909 40.3239 25.0225 40.213 24.7091 40.0043C24.3956 39.7957 24.1511 39.4987 24.0066 39.1509C23.8621 38.8032 23.8241 38.4204 23.8973 38.051C23.9706 37.6817 24.1518 37.3423 24.4181 37.0761C24.6844 36.8098 25.0237 36.6286 25.3931 36.5553C25.7624 36.4821 26.1452 36.5201 26.4929 36.6646C26.8407 36.8091 27.1377 37.0536 27.3464 37.3671C27.555 37.6805 27.6659 38.0489 27.6651 38.4254C27.6639 38.9283 27.4636 39.4103 27.108 39.7659C26.7524 40.1216 26.2704 40.3219 25.7674 40.323ZM33.3579 32.2383C33.3579 32.9815 33.0627 33.6943 32.5371 34.2198C32.0116 34.7454 31.2988 35.0406 30.5556 35.0406H20.9616C20.2184 35.0406 19.5056 34.7454 18.9801 34.2198C18.4546 33.6943 18.1593 32.9815 18.1593 32.2383V16.7264C18.1593 15.9832 18.4546 15.2704 18.9801 14.7449C19.5056 14.2193 20.2184 13.9241 20.9616 13.9241H30.5424C31.2856 13.9241 31.9984 14.2193 32.5239 14.7449C33.0494 15.2704 33.3447 15.9832 33.3447 16.7264L33.3579 32.2383Z" fill="#1A6DEB"/>
        <path d="M30.5469 13.9243H20.9573C19.4121 13.9243 18.1594 15.177 18.1594 16.7222V32.2385C18.1594 33.7838 19.4121 35.0364 20.9573 35.0364H30.5469C32.0921 35.0364 33.3448 33.7838 33.3448 32.2385V16.7222C33.3448 15.177 32.0921 13.9243 30.5469 13.9243Z" fill="#65A0FF"/>
        <path d="M30.5469 13.9243H20.9573C19.4121 13.9243 18.1594 15.177 18.1594 16.7222V32.2385C18.1594 33.7838 19.4121 35.0364 20.9573 35.0364H30.5469C32.0921 35.0364 33.3448 33.7838 33.3448 32.2385V16.7222C33.3448 15.177 32.0921 13.9243 30.5469 13.9243Z" fill="url(#paint1_linear_0_1)"/>
        <path d="M25.7543 40.3231C26.8023 40.3231 27.6519 39.4735 27.6519 38.4254C27.6519 37.3774 26.8023 36.5278 25.7543 36.5278C24.7063 36.5278 23.8567 37.3774 23.8567 38.4254C23.8567 39.4735 24.7063 40.3231 25.7543 40.3231Z" fill="white"/>
        <path d="M25.8955 28.7032V21.126" stroke="white" stroke-width="5" stroke-linecap="round" stroke-linejoin="round"/>
        <path d="M22.3208 23.9681L25.8954 20.3936L29.4655 23.9681" stroke="white" stroke-width="5" stroke-linecap="round" stroke-linejoin="round"/>
    </g>
    <defs>
        <linearGradient id="paint0_linear_0_1" x1="26" y1="0" x2="26" y2="52" gradientUnits="userSpaceOnUse">
            <stop stop-color="#0071BC"/>
            <stop offset="1" stop-color="#0071BC" stop-opacity="0"/>
        </linearGradient>
        <linearGradient id="paint1_linear_0_1" x1="13.8699" y1="17.7416" x2="27.8682" y2="25.6851" gradientUnits="userSpaceOnUse">
            <stop stop-color="#3774BC"/>
            <stop offset="0.31" stop-color="#3976BF"/>
            <stop offset="0.53" stop-color="#407CC8"/>
            <stop offset="0.72" stop-color="#4B86D8"/>
            <stop offset="0.9" stop-color="#5A95EE"/>
            <stop offset="1" stop-color="#659FFE"/>
        </linearGradient>
        <clipPath id="clip0_0_1">
            <rect width="18.504" height="30" fill="white" transform="translate(16.5 12)"/>
        </clipPath>
    </defs>
</svg>
