<svg width="52" height="52" viewBox="0 0 52 52" fill="none" xmlns="http://www.w3.org/2000/svg">
    <circle cx="26" cy="26" r="26" fill="url(#paint0_linear_0_1)" fill-opacity="0.2"/>
    <g clip-path="url(#clip0_0_1)">
        <path d="M23.8736 35.2645L24.6472 30.0779L16.5 26.7153L29.2503 11L27.6209 22.5012C27.6209 22.5012 35.5736 24.6104 35.8632 24.6104C36.1528 24.6104 23.0178 41 23.0178 41L23.8736 35.2645Z" fill="#FDB91A"/>
        <path d="M35.8631 24.6104C35.5735 24.6104 27.6208 22.5012 27.6208 22.5012L29.2502 11L23.1992 23.1712L30.6722 25.8552L23.8735 35.2688L23.009 41C23.009 41 36.1483 24.6104 35.8631 24.6104Z" fill="url(#paint1_linear_0_1)"/>
    </g>
    <defs>
        <linearGradient id="paint0_linear_0_1" x1="26" y1="0" x2="26" y2="52" gradientUnits="userSpaceOnUse">
            <stop stop-color="#FEAD46"/>
            <stop offset="1" stop-color="#FEAD46" stop-opacity="0"/>
        </linearGradient>
        <linearGradient id="paint1_linear_0_1" x1="22.0538" y1="23.6855" x2="32.9111" y2="29.8445" gradientUnits="userSpaceOnUse">
            <stop stop-color="#FDA312"/>
            <stop offset="0.22" stop-color="#FDA312" stop-opacity="0.78"/>
            <stop offset="0.76" stop-color="#FDA312" stop-opacity="0.22"/>
            <stop offset="1" stop-color="#FDA312" stop-opacity="0"/>
        </linearGradient>
        <clipPath id="clip0_0_1">
            <rect width="19.3675" height="30" fill="white" transform="translate(16.5 11)"/>
        </clipPath>
    </defs>
</svg>
