<svg width="21" height="20" viewBox="0 0 21 20" fill="none" xmlns="http://www.w3.org/2000/svg">
    <path d="M7.175 5V15H9.225V11H11.275C11.8187 11 12.3401 10.7893 12.7246 10.4142C13.109 10.0391 13.325 9.53043 13.325 9V7C13.325 6.46957 13.109 5.96086 12.7246 5.58579C12.3401 5.21071 11.8187 5 11.275 5H7.175ZM9.225 7H11.275V9H9.225V7ZM10.25 0C11.596 0 12.9289 0.258658 14.1725 0.761205C15.4161 1.26375 16.546 2.00035 17.4978 2.92893C18.4496 3.85752 19.2047 4.95991 19.7198 6.17317C20.2349 7.38642 20.5 8.68678 20.5 10C20.5 12.6522 19.4201 15.1957 17.4978 17.0711C15.5756 18.9464 12.9685 20 10.25 20C8.90395 20 7.57108 19.7413 6.32749 19.2388C5.08391 18.7362 3.95396 17.9997 3.00216 17.0711C1.07991 15.1957 0 12.6522 0 10C0 7.34784 1.07991 4.8043 3.00216 2.92893C4.9244 1.05357 7.53153 0 10.25 0Z" fill="#594C78"/>
</svg>
