<svg width="21" height="21" viewBox="0 0 21 21" fill="none" xmlns="http://www.w3.org/2000/svg">
    <path d="M9.7 16C8.1 15.9167 6.75 15.3 5.65 14.15C4.55 13 4 11.6167 4 10C4 8.33333 4.58333 6.91667 5.75 5.75C6.91667 4.58333 8.33333 4 10 4C11.6167 4 13 4.55 14.15 5.65C15.3 6.75 15.9167 8.1 16 9.7L13.9 9.075C13.6833 8.175 13.2167 7.43767 12.5 6.863C11.7833 6.28833 10.95 6.00067 10 6C8.9 6 7.95833 6.39167 7.175 7.175C6.39167 7.95833 6 8.9 6 10C6 10.95 6.28767 11.7833 6.863 12.5C7.43833 13.2167 8.17567 13.6833 9.075 13.9L9.7 16ZM10.9 19.95C10.75 19.9833 10.6 20 10.45 20H10C8.61667 20 7.31667 19.7373 6.1 19.212C4.88333 18.6867 3.825 17.9743 2.925 17.075C2.025 16.175 1.31267 15.1167 0.788 13.9C0.263333 12.6833 0.000666667 11.3833 0 10C0 8.61667 0.262667 7.31667 0.788 6.1C1.31333 4.88333 2.02567 3.825 2.925 2.925C3.825 2.025 4.88333 1.31267 6.1 0.788C7.31667 0.263333 8.61667 0.000666667 10 0C11.3833 0 12.6833 0.262667 13.9 0.788C15.1167 1.31333 16.175 2.02567 17.075 2.925C17.975 3.825 18.6877 4.88333 19.213 6.1C19.7383 7.31667 20.0007 8.61667 20 10V10.45C20 10.6 19.9833 10.75 19.95 10.9L18 10.3V10C18 7.76667 17.225 5.875 15.675 4.325C14.125 2.775 12.2333 2 10 2C7.76667 2 5.875 2.775 4.325 4.325C2.775 5.875 2 7.76667 2 10C2 12.2333 2.775 14.125 4.325 15.675C5.875 17.225 7.76667 18 10 18H10.3L10.9 19.95ZM18.525 20.5L14.25 16.225L13 20L10 10L20 13L16.225 14.25L20.5 18.525L18.525 20.5Z" fill="#594C78"/>
</svg>
