<svg width="54" height="54" viewBox="0 0 54 54" fill="none" xmlns="http://www.w3.org/2000/svg">
    <circle cx="27" cy="27" r="25" fill="#40128B"/>
    <circle cx="27" cy="27" r="25" fill="url(#paint0_linear_137_189)" fill-opacity="0.5"/>
    <circle cx="27" cy="27" r="25" stroke="white" stroke-width="4"/>
    <path d="M41.6895 27.9222V26.9502V25.0076H38.6419H36.6107V24.0356H41.6895V22.093H36.6107H33.563V24.0356V25.0076V26.9502H36.6107H38.6419V27.9222H33.563V29.8648H38.6419H41.6895V27.9222ZM42.4926 27.3145V30.4725C42.4926 30.5366 42.4651 30.5993 42.4179 30.6444C42.3707 30.6896 42.3051 30.7159 42.2381 30.7159H38.936V31.2011H42.7455C42.8126 31.2011 42.8781 31.1749 42.9253 31.1297C42.9726 31.0846 43 31.0219 43 30.9578V27.3145H42.4926ZM15.064 21H11.2545C11.1874 21 11.1219 21.0262 11.0747 21.0714C11.0274 21.1166 11 21.1792 11 21.2434V24.8866H11.5074V21.7287C11.5074 21.6645 11.5349 21.6019 11.5821 21.5567C11.6293 21.5115 11.6949 21.4853 11.7619 21.4853H15.064V21ZM18.325 32.2941H20.3562V27.9222H18.325V32.2941ZM20.1032 22.093H15.2773V24.0356H18.325V26.9502H20.3562V22.3349C20.3562 22.2708 20.3288 22.2081 20.2815 22.1629C20.2343 22.1178 20.1688 22.0915 20.1017 22.0915L20.1032 22.093ZM14.2625 22.093H12.4842C12.4171 22.093 12.3516 22.1192 12.3044 22.1644C12.2571 22.2096 12.2297 22.2722 12.2297 22.3363V29.6229C12.2297 29.687 12.2571 29.7497 12.3044 29.7948C12.3516 29.84 12.4171 29.8662 12.4842 29.8662H17.3101V27.9237H14.2625V22.0944V22.093ZM15.2789 26.9502H17.3101V25.0076H15.2789V26.9502ZM15.7863 25.4929H16.8027V26.4649H15.7863V25.4929ZM21.3741 22.093V24.0356H27.4693V25.0076H23.4053H21.3741V26.9502V29.8648H23.4053V26.9793L26.453 29.8648H29.5006L26.3204 26.9502H27.4678H29.499V25.0076V24.0356V22.093H27.4678H21.3726H21.3741ZM30.517 29.8648H32.5482V22.093H30.517V29.8648Z" fill="white"/>
    <defs>
        <linearGradient id="paint0_linear_137_189" x1="27" y1="4" x2="27" y2="50" gradientUnits="userSpaceOnUse">
            <stop offset="0.286458" stop-color="#DD58D6"/>
            <stop offset="1" stop-color="#DD58D6" stop-opacity="0"/>
        </linearGradient>
    </defs>
</svg>
