<svg width="52" height="52" viewBox="0 0 52 52" fill="none" xmlns="http://www.w3.org/2000/svg">
    <circle cx="26" cy="26" r="26" fill="url(#paint0_linear_0_1)" fill-opacity="0.2"/>
    <path d="M40.0279 25.9999C40.0279 18.562 34.1855 12.4619 26.8395 12.0266C26.6881 12.01 26.5363 11.999 26.3823 11.999C26.3368 11.999 26.2913 12.0038 26.2458 12.0051C26.164 12.0038 26.0826 11.999 25.9999 11.999C18.2649 11.999 11.9719 18.2798 11.9719 25.9999C11.9719 33.72 18.2649 40.0008 25.9999 40.0008C26.0826 40.0008 26.164 39.996 26.2462 39.9942C26.2917 39.996 26.3372 40.0008 26.3827 40.0008C26.5367 40.0008 26.6885 39.9898 26.8399 39.9732C34.1855 39.5379 40.0279 33.4387 40.0279 25.9999ZM37.4179 30.507C36.9358 30.367 35.7248 30.063 33.588 29.8127C33.7648 28.6043 33.8614 27.3273 33.8614 25.9999C33.8614 24.9538 33.8011 23.9397 33.6895 22.9645C36.3968 22.6412 37.5828 22.2339 37.6624 22.2059L37.3365 21.2876C37.9446 22.7392 38.2815 24.3308 38.2815 25.9999C38.2815 27.5911 37.9731 29.1105 37.4179 30.507H37.4179ZM19.8063 25.9999C19.8063 25.0208 19.8711 24.0648 19.9896 23.1452C21.4084 23.2568 23.1051 23.339 25.0992 23.3583V29.4303C23.158 29.4491 21.499 29.5279 20.1038 29.6347C19.9113 28.481 19.8063 27.259 19.8063 25.9999ZM26.8461 13.8654C28.9916 14.4871 30.8287 17.4664 31.6516 21.4153C30.3291 21.5207 28.7361 21.5977 26.8461 21.6157V13.8654ZM25.0992 13.8868V21.6148C23.2298 21.596 21.6299 21.5198 20.285 21.417C21.1246 17.5176 22.9765 14.5605 25.0992 13.8868ZM25.0992 31.1741L25.0993 38.1124C23.1196 37.4842 21.3753 34.8701 20.4683 31.3579C21.7743 31.2621 23.3147 31.1921 25.0992 31.1741ZM26.8462 38.1343L26.8462 31.1737C28.6495 31.1907 30.1838 31.2633 31.4732 31.3631C30.5816 34.9213 28.8482 37.5542 26.8462 38.1343ZM26.8462 29.4302L26.8462 23.359C28.8508 23.3402 30.5373 23.2558 31.9373 23.1403C32.0557 24.089 32.115 25.0442 32.115 26.0002C32.115 27.2615 32.0135 28.4848 31.8271 29.6402C30.4485 29.5287 28.7974 29.4486 26.8462 29.4302ZM37.0142 20.584C36.7499 20.6662 35.6452 20.9799 33.4315 21.2411C32.938 18.6174 32.0459 16.3748 30.8852 14.756C33.5522 15.915 35.7288 17.9909 37.0142 20.584ZM21.8115 14.4769C20.3839 16.1163 19.2184 18.4735 18.5823 21.2613C16.6004 21.0465 15.4126 20.794 14.937 20.6794C16.3239 17.8181 18.7936 15.5729 21.8115 14.4769ZM14.2869 22.3135C14.6238 22.4049 15.8978 22.722 18.2669 22.9841C18.1271 23.9834 18.0569 24.9912 18.0569 26.0002C18.0569 27.3202 18.1763 28.5903 18.3916 29.7925C16.3572 30.0121 15.106 30.2751 14.5446 30.4107C14.0131 29.0409 13.7186 27.5547 13.7186 25.9998C13.7186 24.7158 13.9186 23.4772 14.2869 22.3135ZM15.3111 32.025C15.9473 31.8899 17.0861 31.6842 18.7726 31.5075C19.4368 33.9605 20.517 36.036 21.8115 37.5222C19.0465 36.5182 16.7448 34.5485 15.3111 32.025ZM30.8853 37.2431C31.9305 35.7867 32.7578 33.8245 33.2723 31.5337C35.0061 31.7328 36.0946 31.9655 36.6436 32.1042C35.3307 34.3757 33.3117 36.1892 30.8853 37.2431Z" fill="#00C568"/>
    <defs>
        <linearGradient id="paint0_linear_0_1" x1="26" y1="0" x2="26" y2="52" gradientUnits="userSpaceOnUse">
            <stop stop-color="#00C568"/>
            <stop offset="1" stop-color="#00C568" stop-opacity="0"/>
        </linearGradient>
    </defs>
</svg>
