<svg width="24" height="24" viewBox="0 0 24 24" fill="none" xmlns="http://www.w3.org/2000/svg">
    <path fill-rule="evenodd" clip-rule="evenodd" d="M12 24C18.6274 24 24 18.6274 24 12C24 5.37258 18.6274 0 12 0C5.37258 0 0 5.37258 0 12C0 18.6274 5.37258 24 12 24ZM8.22389 12.655L9.88642 15.6272H11.6353L9.83244 12.5348C10.401 12.3818 10.8292 12.105 11.1171 11.7044C11.405 11.2964 11.5489 10.8411 11.5489 10.3384C11.5489 9.90135 11.4446 9.50797 11.2359 9.15829C11.0343 8.80133 10.7285 8.52087 10.3182 8.31689C9.90801 8.10563 9.41141 8 8.82845 8H6V15.6272H7.51138V12.655H8.22389ZM8.77447 11.5077H7.51138V9.26757H8.77447C9.1847 9.26757 9.49058 9.36591 9.6921 9.5626C9.89361 9.75201 9.99437 10.0215 9.99437 10.3712C9.99437 10.7282 9.89361 11.0086 9.6921 11.2126C9.49058 11.4093 9.1847 11.5077 8.77447 11.5077ZM17.7085 13.7585C17.9028 13.4016 18 13.0191 18 12.6112C18 12.1595 17.8956 11.7552 17.6869 11.3982C17.4854 11.0413 17.1795 10.7608 16.7693 10.5568C16.3591 10.3529 15.8625 10.2509 15.2795 10.2509H12.505V17.8781H14.0164V14.9496H15.2795C15.8985 14.9496 16.4094 14.8403 16.8125 14.6218C17.2227 14.4032 17.5214 14.1155 17.7085 13.7585ZM16.1432 13.4307C15.9416 13.6201 15.6322 13.7148 15.2147 13.7148H14.0164V11.4966H15.2147C16.0352 11.4966 16.4454 11.8681 16.4454 12.6112C16.4454 12.9608 16.3447 13.234 16.1432 13.4307Z" fill="#40128B"/>
    <path fill-rule="evenodd" clip-rule="evenodd" d="M12 24C18.6274 24 24 18.6274 24 12C24 5.37258 18.6274 0 12 0C5.37258 0 0 5.37258 0 12C0 18.6274 5.37258 24 12 24ZM8.22389 12.655L9.88642 15.6272H11.6353L9.83244 12.5348C10.401 12.3818 10.8292 12.105 11.1171 11.7044C11.405 11.2964 11.5489 10.8411 11.5489 10.3384C11.5489 9.90135 11.4446 9.50797 11.2359 9.15829C11.0343 8.80133 10.7285 8.52087 10.3182 8.31689C9.90801 8.10563 9.41141 8 8.82845 8H6V15.6272H7.51138V12.655H8.22389ZM8.77447 11.5077H7.51138V9.26757H8.77447C9.1847 9.26757 9.49058 9.36591 9.6921 9.5626C9.89361 9.75201 9.99437 10.0215 9.99437 10.3712C9.99437 10.7282 9.89361 11.0086 9.6921 11.2126C9.49058 11.4093 9.1847 11.5077 8.77447 11.5077ZM17.7085 13.7585C17.9028 13.4016 18 13.0191 18 12.6112C18 12.1595 17.8956 11.7552 17.6869 11.3982C17.4854 11.0413 17.1795 10.7608 16.7693 10.5568C16.3591 10.3529 15.8625 10.2509 15.2795 10.2509H12.505V17.8781H14.0164V14.9496H15.2795C15.8985 14.9496 16.4094 14.8403 16.8125 14.6218C17.2227 14.4032 17.5214 14.1155 17.7085 13.7585ZM16.1432 13.4307C15.9416 13.6201 15.6322 13.7148 15.2147 13.7148H14.0164V11.4966H15.2147C16.0352 11.4966 16.4454 11.8681 16.4454 12.6112C16.4454 12.9608 16.3447 13.234 16.1432 13.4307Z" fill="url(#paint0_linear_130_535)" fill-opacity="0.2"/>
    <defs>
        <linearGradient id="paint0_linear_130_535" x1="12" y1="0" x2="12" y2="24" gradientUnits="userSpaceOnUse">
            <stop stop-color="#DD58D6" stop-opacity="0"/>
            <stop offset="0.739583" stop-color="#DD58D6"/>
            <stop offset="1" stop-color="#DD58D6"/>
        </linearGradient>
    </defs>
</svg>
