<svg width="26" height="26" viewBox="0 0 26 26" fill="none" xmlns="http://www.w3.org/2000/svg">
    <path d="M4.66011 22.1282C2.82585 20.3552 1.60434 18.0439 1.17289 15.5295C0.741428 13.0152 1.12247 10.4289 2.26071 8.14581C3.39895 5.86276 5.23515 4.00186 7.50278 2.83322C9.77041 1.66457 12.3515 1.249 14.8713 1.64682C17.3912 2.04464 19.7187 3.23515 21.516 5.04555C23.3133 6.85595 24.4869 9.19202 24.8664 11.7147C25.246 14.2374 24.8117 16.8153 23.6266 19.0744C22.4416 21.3335 20.5674 23.1562 18.2762 24.2778C17.6023 24.6248 16.8479 24.7855 16.0911 24.7431C15.3344 24.7007 14.6027 24.4568 13.9718 24.0367C13.7208 23.8977 13.5072 23.7 13.3491 23.4606C13.191 23.2212 13.0931 22.9472 13.0637 22.6618C13.0637 21.0816 13.0637 11.221 13.0637 11.221" stroke="#40128B" stroke-width="2" stroke-linecap="round" stroke-linejoin="round"/>
    <path d="M8.82593 14.3658L13.0585 10.677L16.9525 14.5248" stroke="#40128B" stroke-width="2" stroke-linecap="round" stroke-linejoin="round"/>
</svg>
